<svg width="20" height="20" viewBox="0 0 20 20" fill="none" xmlns="http://www.w3.org/2000/svg">
<g clip-path="url(#clip0)">
<path d="M19.1267 1.30183C18.2242 0.815865 17.2176 1.75308 16.6275 2.30846C15.2738 3.6275 14.1283 5.15481 12.8439 6.54328C11.4208 8.07059 10.1017 9.5979 8.64384 11.0906C7.81076 11.9236 6.90826 12.8261 6.35288 13.8675C5.10326 12.6525 4.0272 11.3335 2.63874 10.2575C1.6321 9.49382 -0.0340557 8.93843 0.000655905 10.7781C0.0700791 13.1733 2.18749 15.742 3.74951 17.3733C4.40903 18.0676 5.27682 18.7965 6.28345 18.8312C7.49836 18.9007 8.74798 17.4428 9.47692 16.6444C10.7613 15.2559 11.8027 13.6939 12.9828 12.2707C14.5101 10.3963 16.0721 8.55655 17.5647 6.64741C18.5019 5.46722 21.4524 2.55139 19.1267 1.30183ZM1.52791 10.6393C1.4932 10.6393 1.45849 10.6393 1.38906 10.674C1.25022 10.6393 1.14608 10.6045 1.00724 10.5351C1.11137 10.4657 1.28493 10.5004 1.52791 10.6393Z" fill="#EF5B39"/>
</g>
<defs>
<clipPath id="clip0">
<rect width="20" height="20" fill="white"/>
</clipPath>
</defs>
</svg>
