<svg width="50" height="46" viewBox="0 0 50 46" fill="none" xmlns="http://www.w3.org/2000/svg">
<path d="M17.8086 0H50.0002V3.67163H21.8434V7.7044L50.0002 7.7044V11.1654H21.8434V16.1913H50.0002L49.9853 19.8629L17.8086 19.8629V0Z" fill="#F46244"/>
<path d="M7.18751 19.8629C5.60908 19.8629 4.19037 19.4854 2.93138 18.7304C1.69118 17.956 0.714053 16.9202 0 15.6232L2.62133 13.5904C3.22264 14.4422 3.88032 15.1198 4.59437 15.6232C5.30842 16.1265 6.1728 16.3782 7.18751 16.3782C8.01431 16.3782 8.66259 16.1943 9.13237 15.8264C9.60214 15.4392 9.83702 14.9165 9.83702 14.2583C9.83702 13.6969 9.65851 13.271 9.30148 12.9806C8.96325 12.6708 8.35254 12.303 7.46937 11.8771L5.46814 10.9478C4.04004 10.2896 2.93138 9.5249 2.14216 8.65372C1.35294 7.78254 0.958335 6.70808 0.958335 5.43035C0.958335 4.34622 1.22141 3.3976 1.74755 2.5845C2.29249 1.75204 3.03473 1.11317 3.97427 0.667904C4.91381 0.222635 5.9661 0 7.13114 0C8.55925 0 9.79005 0.329113 10.8235 0.987338C11.8758 1.64556 12.6932 2.52642 13.2758 3.62992L10.6826 5.69171C9.72428 4.22038 8.54045 3.48472 7.13114 3.48472C6.47346 3.48472 5.91913 3.64927 5.46814 3.97839C5.03595 4.28814 4.81986 4.74309 4.81986 5.34324C4.81986 5.84658 4.97958 6.25314 5.29903 6.56289C5.63726 6.85328 6.20099 7.18239 6.99021 7.55022L9.10418 8.50852C10.6638 9.22483 11.8195 10.0186 12.5711 10.8897C13.3227 11.7416 13.6985 12.816 13.6985 14.1131C13.6985 15.2747 13.4167 16.2911 12.853 17.1622C12.2892 18.0334 11.5094 18.7013 10.5135 19.166C9.53637 19.6306 8.42771 19.8629 7.18751 19.8629Z" fill="#F46244"/>
<path d="M29.9046 27.0865C28.0165 25.0903 25.5343 23.9951 22.92 23.9813C18.7742 23.9674 14.4435 23.9674 10.06 23.9951C9.37341 23.9951 8.70003 24.0644 8.03987 24.2031C3.10181 25.2289 -0.410282 30.1917 0.038632 35.4872C0.263089 38.0795 1.35897 40.4916 3.15462 42.2799C4.95028 44.0821 7.28728 45.1079 9.7299 45.1772C10.5617 45.2049 11.4067 45.2049 12.2517 45.2049C12.9515 45.2049 13.6381 45.2049 14.3247 45.1911C15.0112 45.1911 15.711 45.1772 16.3976 45.1772H16.7013C17.2954 45.1772 17.9028 45.1772 18.4969 45.1911C20.0285 45.2049 21.5997 45.2049 23.1577 45.1772C25.772 45.1079 28.2278 43.9573 30.0763 41.9195C31.9247 39.8817 32.915 37.2478 32.8754 34.4753C32.849 31.6889 31.7927 29.0688 29.9046 27.0865ZM23.4086 25.5893C28.109 25.922 31.5286 29.9976 31.3834 35.0852C31.2382 39.7153 27.4488 43.5553 22.92 43.6384C18.6818 43.7078 14.3643 43.7078 10.0864 43.6384C5.35959 43.5553 1.51741 39.5628 1.53061 34.7248C1.54381 29.5956 5.24076 25.6448 10.126 25.5339C10.905 25.52 11.6972 25.5062 12.4762 25.5062C13.1364 25.5062 13.7833 25.5062 14.4303 25.52C14.9716 25.52 15.5262 25.52 16.0675 25.5339C16.0675 25.52 21.811 25.4784 23.4086 25.5893Z" fill="#F46244"/>
<path d="M21.0174 36.8727C20.8914 36.8447 20.7655 36.8167 20.6395 36.7887C19.5198 36.4947 18.582 35.8929 17.8542 34.9971C17.7982 34.9271 17.7842 34.8711 17.8262 34.7871C18.498 33.5274 19.5338 32.7156 20.9194 32.3657C20.9334 32.3657 20.9334 32.3657 20.9614 32.3657C19.0439 33.3035 19.1139 36.0189 21.0174 36.8727Z" fill="#F46244"/>
<path d="M26.1678 34.689C26.2098 34.773 26.2098 34.815 26.1538 34.899C25.328 35.9347 24.2783 36.5926 22.9766 36.8585C23.9003 36.3826 24.4322 35.6548 24.4322 34.619C24.4322 33.5833 23.9143 32.8414 23.0046 32.3516C23.4245 32.4355 23.8164 32.5755 24.1943 32.7715C25.0481 33.2054 25.7059 33.8492 26.1678 34.689Z" fill="#F46244"/>
<path d="M30.1988 34.1291C29.9748 29.7622 26.0277 26.179 21.7028 26.417C16.9719 26.6829 13.4727 30.462 13.7107 35.0389C13.9486 39.5878 17.8677 43.185 22.2766 42.9051C27.0355 42.6111 30.4367 38.846 30.1988 34.1291ZM26.8256 35.1789C25.8038 36.5086 24.4741 37.3344 22.8225 37.5863C22.7525 37.6003 22.6685 37.6003 22.5986 37.6143C22.4166 37.6283 22.2486 37.6423 22.0807 37.6563C20.0372 37.6283 18.4135 36.8165 17.1678 35.2349C17.0139 35.0389 17.0139 34.913 17.1119 34.689C17.8817 33.1354 19.0854 32.0996 20.793 31.6937C21.3948 31.5537 21.9967 31.5118 22.5706 31.5677C24.3761 31.7357 25.9998 32.8134 26.8955 34.521C27.0075 34.787 26.9935 34.9409 26.8256 35.1789Z" fill="#F46244"/>
<path d="M49.9993 23.9722V45.2049H48.9025L39.5914 32.5398V45.2049H36.3008V23.9722H37.3733L46.7088 36.5752V23.9722H49.9993Z" fill="#F46244"/>
</svg>
