<svg width="540" height="110" viewBox="0 0 540 110" fill="none" xmlns="http://www.w3.org/2000/svg">
<path d="M302.58 55C302.58 60.6722 303.618 66.7495 305.693 73.232C307.867 79.6133 311.226 85.5387 315.772 91.0083C320.317 96.4779 326.098 101.036 333.114 104.682C340.13 108.227 348.529 110 358.312 110C364.932 110 370.911 109.19 376.247 107.569C381.681 105.847 386.523 103.568 390.772 100.732C395.12 97.896 398.875 94.6547 402.037 91.0083C405.199 87.2606 407.769 83.361 409.745 79.3094C411.82 75.1565 413.352 71.0037 414.34 66.8508C415.427 62.698 415.97 58.7477 415.97 55C415.97 49.3278 414.834 43.3011 412.561 36.9199C410.288 30.4374 406.78 24.4613 402.037 18.9917C397.294 13.5221 391.267 9.01473 383.954 5.46961C376.741 1.8232 368.193 0 358.312 0C348.529 0 340.13 1.77256 333.114 5.31767C326.098 8.8628 320.317 13.3702 315.772 18.8398C311.226 24.2081 307.867 30.1335 305.693 36.616C303.618 43.0985 302.58 49.2265 302.58 55ZM317.106 55C317.106 47.9098 318.143 41.4273 320.219 35.5525C322.392 29.5764 325.308 24.4613 328.964 20.2072C332.719 15.953 337.116 12.6611 342.155 10.3315C347.195 7.90055 352.679 6.68508 358.608 6.68508C364.438 6.68508 369.922 7.90055 375.061 10.3315C380.298 12.6611 384.844 15.953 388.697 20.2072C392.65 24.4613 395.763 29.5764 398.035 35.5525C400.308 41.4273 401.444 47.9098 401.444 55C401.444 62.0902 400.308 68.6234 398.035 74.5994C395.763 80.4742 392.65 85.5387 388.697 89.7928C384.844 94.047 380.298 97.3895 375.061 99.8204C369.922 102.15 364.438 103.315 358.608 103.315C352.679 103.315 347.195 102.15 342.155 99.8204C337.116 97.3895 332.719 94.047 328.964 89.7928C325.308 85.5387 322.392 80.4742 320.219 74.5994C318.143 68.6234 317.106 62.0902 317.106 55Z" fill="#E3F1F6"/>
<path d="M532.211 1.8232V83.1077H531.618L449.355 0H448.614V108.177H455.432V26.8923H456.025L538.288 110H539.03V1.8232H532.211Z" fill="#E3F1F6"/>
<path d="M0.654785 81.2845C0.852415 85.64 1.93938 89.5902 3.91568 93.1354C5.9908 96.6805 8.75762 99.7192 12.2161 102.251C15.7735 104.682 19.9237 106.607 24.6668 108.025C29.4099 109.342 34.5977 110 40.2302 110C45.9615 110 51.0998 109.291 55.6453 107.873C60.2896 106.455 64.2422 104.429 67.5031 101.796C70.764 99.1621 73.2838 95.9715 75.0625 92.2238C76.8411 88.4761 77.7305 84.3232 77.7305 79.7652C77.7305 73.4853 76.1988 68.3702 73.1356 64.4199C70.0723 60.3683 66.2185 57.0258 61.5742 54.3923C57.0287 51.6575 52.0386 49.3785 46.6038 47.5552C41.2677 45.732 36.2776 43.8076 31.6333 41.7818C27.0878 39.756 23.2834 37.4263 20.2202 34.7928C17.1569 32.1593 15.6253 28.6648 15.6253 24.3094C15.6253 21.8784 16.1193 19.5994 17.1075 17.4724C18.1944 15.3453 19.7261 13.5221 21.7024 12.0028C23.7775 10.3821 26.2973 9.11602 29.2617 8.20441C32.2262 7.19152 35.6353 6.68508 39.4891 6.68508C45.912 6.68508 51.3469 8.10313 55.7935 10.9392C60.339 13.674 63.007 18.0295 63.7976 24.0055H73.8767C73.2838 20.2578 71.9498 16.9153 69.8747 13.9779C67.7996 10.9392 65.181 8.40699 62.0189 6.38121C58.8568 4.25414 55.2501 2.68416 51.1987 1.67127C47.2461 0.557087 43.0958 0 38.748 0C34.2025 0 29.8546 0.607734 25.7044 1.8232C21.653 3.03867 18.0462 4.81123 14.8841 7.14088C11.8209 9.47053 9.3505 12.4079 7.47302 15.953C5.69435 19.4982 4.80502 23.5497 4.80502 28.1077C4.80502 34.0838 6.28724 38.895 9.25169 42.5414C12.2161 46.1878 15.9217 49.2265 20.3684 51.6575C24.9139 54.0884 29.8052 56.1648 35.0424 57.8867C40.2796 59.6087 45.1215 61.5838 49.5682 63.8122C54.1137 65.9392 57.8687 68.5727 60.8331 71.7127C63.7976 74.8527 65.2798 79.0562 65.2798 84.3232C65.2798 90.907 62.9082 95.7182 58.1651 98.7569C53.5208 101.796 47.2955 103.315 39.4891 103.315C33.2637 103.315 28.2736 102.505 24.5186 100.884C20.7636 99.1621 17.898 97.1363 15.9217 94.8066C13.9454 92.477 12.6114 90.0967 11.9197 87.6657C11.228 85.1335 10.8327 83.0065 10.7339 81.2845H0.654785Z" fill="white"/>
<path d="M113.007 1.8232V108.177H180.004V99.8204H126.496V55.3039H172.445V48.3149H126.496V10.1796H180.004V1.8232H113.007Z" fill="white"/>
<path d="M209.584 1.8232V108.177H276.58V99.8204H223.072V55.3039H269.021V48.3149H223.072V10.1796H276.58V1.8232H209.584Z" fill="white"/>
</svg>
