<svg width="20" height="20" fill="none" xmlns="http://www.w3.org/2000/svg"><g clip-path="url(#clip0)"><path d="M19.127 1.302c-.903-.486-1.91.451-2.5 1.006-1.353 1.32-2.499 2.847-3.783 4.235-1.423 1.528-2.742 3.055-4.2 4.548-.833.833-1.736 1.735-2.291 2.777-1.25-1.216-2.326-2.534-3.714-3.61-1.007-.764-2.673-1.32-2.638.52.07 2.395 2.186 4.964 3.749 6.595.659.695 1.527 1.424 2.533 1.458 1.215.07 2.465-1.388 3.194-2.187 1.284-1.388 2.326-2.95 3.506-4.373 1.527-1.875 3.09-3.714 4.582-5.624.937-1.18 3.887-4.096 1.562-5.345zm-17.6 9.337c-.034 0-.069 0-.138.035a1.693 1.693 0 01-.382-.139c.104-.07.278-.035.52.104z" fill="#EF5B39"/></g><defs><clipPath id="clip0"><path fill="#fff" d="M0 0h20v20H0z"/></clipPath></defs></svg>