<svg width="50" height="46" fill="none" xmlns="http://www.w3.org/2000/svg"><path d="M17.809 0H50v3.672H21.843v4.032H50v3.461H21.843v5.026H50l-.015 3.672H17.81V0zM7.188 19.863c-1.579 0-2.998-.378-4.257-1.133A8.344 8.344 0 010 15.623l2.621-2.033c.602.852 1.26 1.53 1.973 2.033.714.504 1.579.755 2.594.755.826 0 1.475-.184 1.944-.552.47-.387.705-.91.705-1.568 0-.561-.178-.987-.536-1.277-.338-.31-.948-.678-1.832-1.104l-2-.93C4.04 10.29 2.93 9.526 2.141 8.655 1.352 7.783.958 6.708.958 5.43c0-1.084.263-2.032.79-2.845.544-.833 1.287-1.472 2.226-1.917C4.914.223 5.966 0 7.131 0c1.428 0 2.66.33 3.692.987a6.816 6.816 0 012.453 2.643l-2.593 2.062C9.724 4.22 8.54 3.485 7.13 3.485c-.658 0-1.212.164-1.663.493-.432.31-.648.765-.648 1.365 0 .504.16.91.479 1.22.338.29.902.62 1.691.987l2.114.959c1.56.716 2.716 1.51 3.467 2.38.752.853 1.127 1.927 1.127 3.224 0 1.162-.281 2.178-.845 3.05-.564.87-1.344 1.538-2.34 2.003-.977.465-2.085.697-3.325.697zm22.717 7.224c-1.889-1.997-4.37-3.092-6.985-3.106-4.146-.014-8.477-.014-12.86.014-.687 0-1.36.07-2.02.208C3.102 25.23-.41 30.192.039 35.487c.224 2.593 1.32 5.005 3.116 6.793 1.795 1.802 4.132 2.828 6.575 2.897a75.35 75.35 0 002.522.028c.7 0 1.386 0 2.073-.014.686 0 1.386-.014 2.073-.014h.303c.594 0 1.202 0 1.796.014 1.532.014 3.103.014 4.66-.014 2.615-.07 5.07-1.22 6.92-3.258a10.787 10.787 0 002.798-7.444c-.026-2.786-1.082-5.406-2.97-7.389zm-6.496-1.498c4.7.333 8.12 4.409 7.974 9.496-.145 4.63-3.934 8.47-8.463 8.553-4.238.07-8.556.07-12.834 0-4.726-.083-8.569-4.075-8.555-8.913.013-5.13 3.71-9.08 8.595-9.191.779-.014 1.571-.028 2.35-.028.66 0 1.307 0 1.954.014.542 0 1.096 0 1.637.014 0-.014 5.744-.056 7.342.055z" fill="#F46244"/><path d="M21.017 36.873l-.377-.084a5.225 5.225 0 01-2.786-1.792c-.056-.07-.07-.126-.028-.21.672-1.26 1.708-2.071 3.093-2.421h.042c-1.917.938-1.847 3.653.056 4.507zm5.151-2.184c.042.084.042.126-.014.21-.826 1.036-1.876 1.694-3.177 1.96.923-.476 1.455-1.204 1.455-2.24 0-1.036-.518-1.778-1.427-2.267.42.084.811.224 1.19.42a4.579 4.579 0 011.973 1.917z" fill="#F46244"/><path d="M30.199 34.13c-.224-4.368-4.171-7.951-8.496-7.713-4.731.266-8.23 4.045-7.992 8.622.238 4.549 4.157 8.146 8.566 7.866 4.758-.294 8.16-4.059 7.922-8.776zm-3.373 1.049c-1.022 1.33-2.352 2.155-4.003 2.407-.07.014-.154.014-.224.028l-.518.042c-2.044-.028-3.668-.84-4.913-2.421-.154-.196-.154-.322-.056-.546.77-1.554 1.973-2.59 3.681-2.995a5.507 5.507 0 011.778-.126c1.805.168 3.429 1.245 4.324 2.953.113.266.099.42-.07.658zM50 23.972v21.233h-1.097L39.59 32.54v12.665H36.3V23.972h1.072l9.336 12.603V23.972h3.29z" fill="#F46244"/></svg>