<?xml version="1.0" standalone="no"?>
<!DOCTYPE svg PUBLIC "-//W3C//DTD SVG 20010904//EN"
 "http://www.w3.org/TR/2001/REC-SVG-20010904/DTD/svg10.dtd">
<svg version="1.0" xmlns="http://www.w3.org/2000/svg"
 width="800.000000pt" height="800.000000pt" viewBox="0 0 800.000000 800.000000"
 preserveAspectRatio="xMidYMid meet">
<metadata>
Created by potrace 1.11, written by Peter Selinger 2001-2013
</metadata>
<g transform="translate(0.000000,800.000000) scale(0.100000,-0.100000)"
fill="#000000" stroke="none">
<path d="M965 7669 c-22 -4 -58 -11 -79 -14 -52 -9 -198 -54 -211 -66 -5 -5
-17 -9 -27 -9 -10 0 -18 -4 -18 -10 0 -5 -9 -10 -19 -10 -11 0 -22 -4 -26 -9
-3 -6 -29 -23 -58 -40 -94 -54 -216 -184 -274 -291 -31 -58 -76 -170 -68 -170
2 0 0 -12 -5 -26 -23 -59 -31 -247 -16 -352 16 -110 65 -230 132 -318 46 -62
163 -176 223 -217 25 -17 52 -37 59 -44 7 -7 17 -13 22 -13 5 0 15 -6 22 -12
22 -21 85 -56 233 -127 145 -71 298 -142 302 -142 7 1 214 -110 223 -119 3 -3
18 -12 34 -20 55 -28 132 -116 146 -167 40 -140 -14 -291 -128 -364 -71 -45
-136 -61 -287 -71 -38 -3 -162 16 -220 33 -131 39 -239 112 -369 250 -43 45
-90 100 -103 121 -14 21 -29 38 -33 38 -6 0 -124 -86 -156 -115 -13 -11 -71
-56 -186 -144 l-77 -58 21 -39 c55 -104 173 -245 279 -335 28 -24 60 -52 72
-61 11 -10 23 -18 27 -18 3 0 15 -8 26 -18 16 -14 59 -39 164 -93 33 -17 151
-60 182 -66 18 -3 40 -9 48 -13 8 -4 35 -11 60 -14 25 -3 68 -10 96 -14 102
-17 352 -6 459 19 22 5 50 12 62 14 62 14 241 90 278 118 5 4 29 20 52 35 58
38 132 108 181 172 23 30 46 60 50 65 27 34 84 168 103 242 23 92 28 143 29
258 1 158 -43 310 -124 430 -80 120 -245 260 -411 351 -38 21 -71 42 -73 46
-2 4 -11 8 -21 8 -9 0 -21 4 -27 9 -5 5 -54 29 -109 54 -184 82 -219 99 -340
157 -259 126 -319 196 -311 361 7 142 118 241 296 265 179 24 359 -39 495
-172 51 -51 113 -124 129 -153 5 -9 10 -17 12 -19 1 -2 10 3 21 12 10 8 90 72
178 141 88 70 173 137 188 149 25 21 31 42 17 56 -3 3 -22 31 -43 63 -50 76
-69 100 -147 177 -79 79 -100 96 -165 136 -131 83 -241 127 -380 155 -70 13
-352 19 -410 8z"/>
<path d="M2850 6092 l0 -1589 2574 0 2574 0 1 293 2 294 -2251 0 c-1237 0
-2251 3 -2251 8 -1 4 -2 183 -3 399 l-2 391 26 4 c14 2 1027 3 2253 2 l2227 0
0 277 0 276 -2227 1 c-1226 0 -2239 1 -2253 1 l-26 1 0 320 0 320 31 1 c16 0
1030 0 2253 1 l2222 0 0 294 0 294 -2575 0 -2575 0 0 -1588z"/>
<path d="M1637 3843 c-1 -1 -54 -4 -117 -7 -63 -3 -126 -8 -140 -11 -14 -3
-41 -8 -60 -11 -107 -17 -295 -81 -411 -139 -59 -30 -224 -138 -278 -182 -116
-94 -250 -246 -348 -393 -51 -76 -157 -280 -146 -280 3 0 1 -6 -4 -12 -16 -21
-73 -196 -92 -283 -29 -136 -36 -204 -36 -370 0 -196 9 -273 60 -485 12 -50
74 -210 115 -296 41 -84 158 -277 179 -294 3 -3 29 -32 56 -65 158 -189 367
-344 599 -444 86 -36 238 -83 315 -96 62 -10 119 -18 156 -21 108 -9 2335 -1
2375 9 14 3 43 9 65 12 22 4 53 9 69 12 66 11 274 88 355 130 119 63 181 104
290 191 51 41 196 187 228 230 15 20 31 39 34 42 14 11 104 149 143 220 46 81
116 244 117 270 1 3 4 10 9 15 4 6 11 26 16 45 10 45 8 38 23 90 8 25 15 56
17 70 2 14 9 66 17 115 14 85 16 400 4 465 -2 14 -8 45 -11 70 -40 260 -193
609 -341 776 -5 7 -26 31 -45 55 -59 74 -192 201 -260 249 -19 14 -39 31 -43
38 -4 6 -12 12 -16 12 -5 0 -33 16 -62 36 -176 118 -417 202 -664 230 -50 5
-2163 13 -2168 7z m2103 -256 c107 -10 166 -20 250 -44 47 -13 92 -26 100 -28
8 -2 16 -4 18 -5 1 -2 5 -3 10 -5 42 -11 170 -74 219 -107 23 -15 45 -28 48
-28 14 0 143 -107 210 -175 193 -193 328 -445 392 -730 10 -47 23 -135 28
-200 4 -49 8 -205 5 -215 -1 -3 -3 -30 -5 -60 -8 -129 -49 -294 -107 -430 -56
-133 -170 -315 -242 -386 -12 -11 -35 -36 -51 -55 -77 -87 -261 -223 -385
-282 -179 -86 -299 -118 -510 -136 -100 -9 -2176 -6 -2235 3 -22 4 -51 8 -65
10 -14 2 -32 7 -40 10 -8 3 -28 7 -45 10 -83 12 -281 91 -400 159 -36 21 -159
110 -194 142 -177 157 -308 342 -392 550 -17 44 -32 84 -33 90 -1 5 -10 35
-19 65 -9 30 -19 71 -22 90 -3 19 -10 61 -16 94 -12 70 -15 263 -6 363 16 159
66 345 133 491 18 40 33 75 33 79 -1 3 3 9 8 12 5 3 20 26 34 51 13 25 26 47
29 50 3 3 21 28 40 55 148 213 396 400 642 485 35 12 70 25 78 28 19 6 28 9
62 15 15 3 31 8 35 10 10 6 92 17 188 26 78 7 2118 5 2205 -2z"/>
<path d="M3488 3455 c-2 -1 -37 -5 -78 -8 -41 -3 -82 -8 -90 -11 -8 -3 -33 -8
-55 -11 -44 -6 -184 -44 -200 -53 -5 -4 -16 -7 -23 -8 -52 -8 -306 -156 -387
-226 -27 -24 -140 -136 -155 -155 -8 -10 -32 -39 -52 -65 -21 -25 -38 -49 -38
-53 0 -3 -13 -25 -28 -48 -49 -72 -106 -194 -116 -247 -1 -3 -4 -9 -7 -15 -4
-5 -10 -23 -14 -40 -5 -16 -9 -34 -11 -40 -3 -10 -10 -42 -19 -85 -20 -96 -26
-315 -12 -410 3 -25 9 -60 11 -79 3 -18 8 -41 11 -51 3 -10 7 -27 9 -37 22
-110 127 -339 208 -448 72 -98 195 -224 279 -286 30 -22 61 -45 70 -52 84 -64
282 -149 424 -182 151 -36 351 -39 520 -9 46 8 217 53 240 63 114 51 225 106
225 113 0 4 5 8 11 8 38 0 239 171 317 269 20 25 41 51 47 56 14 13 107 169
128 215 61 135 100 261 112 360 2 19 5 35 6 35 9 0 13 308 4 345 -4 14 -7 32
-7 40 0 27 -38 180 -59 239 -35 97 -141 293 -179 331 -3 3 -18 23 -34 44 -39
52 -149 163 -211 213 -183 146 -424 251 -643 278 -45 6 -200 13 -204 10z m153
-829 c24 -3 59 -10 77 -15 17 -5 32 -7 32 -5 0 3 6 2 13 -3 6 -4 20 -9 29 -10
50 -8 226 -105 286 -158 27 -24 112 -109 127 -127 27 -33 99 -149 103 -165 12
-58 -8 -93 -113 -199 -186 -187 -423 -286 -685 -287 -60 0 -168 13 -197 24
-13 5 -27 8 -31 7 -10 -3 -115 33 -129 45 -7 5 -13 6 -13 3 0 -7 -101 44 -110
55 -3 3 -18 13 -35 22 -16 8 -40 25 -52 36 -12 12 -25 21 -28 21 -11 0 -160
158 -177 188 -18 30 -18 30 22 108 21 44 50 91 62 107 13 15 37 44 53 65 17
22 63 66 102 99 179 147 434 220 664 189z"/>
<path d="M3264 2476 c-33 -12 -77 -32 -98 -44 -20 -12 -40 -22 -43 -22 -7 0
-86 -63 -126 -99 -58 -55 -147 -184 -147 -214 0 -34 227 -227 267 -227 7 0 13
-3 13 -8 0 -13 186 -79 196 -69 3 3 -10 14 -28 26 -154 98 -212 321 -129 492
35 73 67 112 130 157 51 37 47 38 -35 8z"/>
<path d="M3715 2487 c11 -7 45 -37 77 -68 87 -86 120 -172 114 -300 -5 -124
-71 -238 -177 -305 -40 -25 -54 -43 -19 -24 11 6 20 8 20 6 0 -9 134 45 190
76 30 17 77 48 105 68 63 47 165 154 165 173 0 24 -81 138 -135 191 -62 60
-173 135 -225 151 -3 1 -16 6 -30 12 -14 6 -28 11 -32 12 -4 1 -22 6 -40 11
-28 7 -30 7 -13 -3z"/>
<path d="M5814 3838 c-4 -6 -8 -3066 -4 -3353 l0 -40 257 2 c142 1 260 2 263
2 3 1 5 453 5 1006 0 553 3 1005 6 1005 3 0 26 -28 50 -62 23 -35 46 -65 49
-68 5 -4 77 -102 403 -548 156 -213 189 -256 199 -260 4 -2 8 -8 8 -14 0 -6
31 -52 69 -102 37 -50 127 -172 199 -271 73 -99 136 -185 141 -191 5 -6 88
-119 186 -252 143 -196 182 -242 201 -243 31 -1 108 -1 134 0 20 1 20 6 18
1699 l-3 1697 -260 0 -260 0 0 -997 c-1 -549 -4 -1000 -7 -1004 -4 -3 -12 5
-19 18 -6 12 -15 25 -19 28 -3 3 -33 41 -65 85 -32 44 -62 84 -67 90 -5 5 -33
44 -64 85 -30 41 -60 82 -67 91 -6 8 -16 23 -22 31 -5 9 -38 53 -72 98 -35 45
-63 84 -63 86 0 3 -6 11 -12 18 -7 7 -21 24 -31 37 -29 40 -216 293 -224 304
-5 6 -21 28 -38 50 -16 22 -33 42 -37 43 -4 2 -8 8 -8 12 0 5 -35 55 -77 112
-42 57 -95 128 -117 158 -23 30 -43 57 -46 60 -3 3 -23 29 -44 59 -21 30 -43
59 -48 65 -8 10 -156 210 -193 261 -7 11 -46 63 -85 115 l-71 94 -80 1 c-44 0
-83 -3 -85 -7z"/>
</g>
</svg>
