<?xml version="1.0" standalone="no"?>
<!DOCTYPE svg PUBLIC "-//W3C//DTD SVG 20010904//EN"
 "http://www.w3.org/TR/2001/REC-SVG-20010904/DTD/svg10.dtd">
<svg version="1.0" xmlns="http://www.w3.org/2000/svg"
 width="800.000000pt" height="800.000000pt" viewBox="0 0 800.000000 800.000000"
 preserveAspectRatio="xMidYMid meet">
<metadata>
Created by potrace 1.11, written by Peter Selinger 2001-2013
</metadata>
<g transform="translate(0.000000,800.000000) scale(0.100000,-0.100000)"
fill="#000000" stroke="none">
<path d="M948 7670 c-398 -63 -686 -303 -774 -645 -27 -108 -25 -325 4 -429
40 -140 93 -228 207 -342 155 -155 281 -232 686 -419 406 -187 499 -268 499
-435 0 -182 -118 -303 -325 -331 -279 -38 -520 70 -739 331 -44 52 -83 96 -87
98 -7 3 -88 -59 -406 -305 -14 -11 -12 -17 12 -60 127 -220 358 -426 587 -525
486 -209 1096 -105 1379 236 71 85 140 214 169 316 31 104 39 334 17 442 -34
162 -108 291 -238 411 -143 134 -294 223 -634 377 -365 165 -474 234 -510 322
-25 61 -24 170 2 228 82 184 385 236 625 108 72 -38 187 -143 243 -222 22 -30
43 -55 47 -53 22 7 408 321 408 332 0 25 -100 165 -171 240 -97 101 -183 166
-304 225 -156 77 -264 102 -470 106 -93 1 -196 -1 -227 -6z"/>
<path d="M2850 6090 l0 -1590 2575 0 2575 0 0 295 0 295 -2250 0 -2250 0 0
400 0 400 2250 0 2250 0 0 280 0 280 -2250 0 -2250 0 0 320 0 320 2250 0 2250
0 0 295 0 295 -2575 0 -2575 0 0 -1590z"/>
<path d="M1720 3840 c-283 -5 -338 -9 -427 -28 -635 -138 -1122 -653 -1265
-1337 -20 -95 -23 -140 -23 -325 0 -184 3 -231 23 -328 145 -719 682 -1257
1355 -1356 154 -23 2340 -24 2492 -1 676 102 1214 634 1356 1341 42 212 37
503 -12 729 -124 564 -541 1044 -1068 1227 -126 44 -249 68 -396 78 -140 10
-1502 10 -2035 0z m2050 -260 c253 -24 487 -114 687 -264 86 -65 240 -229 302
-321 253 -379 328 -882 194 -1309 -135 -433 -512 -808 -938 -931 -204 -59
-191 -58 -1375 -58 -957 0 -1097 2 -1187 16 -227 36 -406 106 -587 231 -314
214 -531 556 -598 941 -26 155 -21 404 12 560 63 298 190 536 394 741 164 163
325 264 531 333 141 46 237 63 415 70 257 11 2018 3 2150 -9z"/>
<path d="M3430 3454 c-208 -25 -372 -73 -532 -156 -354 -181 -599 -503 -684
-900 -26 -116 -26 -390 -1 -508 145 -686 765 -1151 1427 -1070 474 58 855 320
1057 725 170 341 183 760 34 1106 -173 401 -547 704 -969 785 -79 15 -270 25
-332 18z m276 -843 c96 -20 230 -76 309 -131 125 -86 279 -273 292 -354 7 -45
-19 -87 -114 -181 -128 -127 -273 -211 -443 -256 -124 -34 -338 -34 -465 0
-168 44 -296 115 -424 236 -87 82 -131 139 -131 170 0 27 84 168 141 237 195
232 526 343 835 279z"/>
<path d="M3241 2469 c-146 -59 -265 -158 -350 -289 -23 -35 -41 -72 -41 -82 0
-30 138 -158 226 -210 70 -42 260 -116 270 -105 2 2 -20 20 -50 41 -153 105
-207 317 -124 492 22 48 99 134 148 167 40 26 3 20 -79 -14z"/>
<path d="M3724 2477 c105 -78 156 -156 176 -266 28 -156 -39 -310 -169 -393
-33 -20 -39 -28 -25 -28 50 0 231 80 304 134 63 47 180 169 180 188 0 31 -68
129 -135 194 -72 71 -176 136 -271 170 -80 29 -98 30 -60 1z"/>
<path d="M5810 2150 l0 -1700 265 0 265 0 2 1003 3 1003 736 -1001 735 -1000
92 -3 92 -3 0 1701 0 1700 -262 -2 -263 -3 -5 -1001 -5 -1000 -743 1003 -743
1003 -85 0 -84 0 0 -1700z"/>
</g>
</svg>
