<svg width="50" height="46" fill="none" xmlns="http://www.w3.org/2000/svg"><path d="M17.809 0H50v3.672H21.843v4.032H50v3.461H21.843v5.026H50l-.015 3.672H17.81V0zM7.188 19.863c-1.579 0-2.998-.378-4.257-1.133A8.344 8.344 0 010 15.623l2.621-2.033c.602.852 1.26 1.53 1.973 2.033.714.504 1.579.755 2.594.755.826 0 1.475-.184 1.944-.552.47-.387.705-.91.705-1.568 0-.561-.178-.987-.536-1.277-.338-.31-.948-.678-1.832-1.104l-2-.93C4.04 10.29 2.93 9.526 2.141 8.655 1.352 7.783.958 6.708.958 5.43c0-1.084.263-2.032.79-2.845.544-.833 1.287-1.472 2.226-1.917C4.914.223 5.966 0 7.131 0c1.428 0 2.66.33 3.692.987a6.816 6.816 0 012.453 2.643l-2.593 2.062C9.724 4.22 8.54 3.485 7.13 3.485c-.658 0-1.212.164-1.663.493-.432.31-.648.765-.648 1.365 0 .504.16.91.479 1.22.338.29.902.62 1.691.987l2.114.959c1.56.716 2.716 1.51 3.467 2.38.752.853 1.127 1.927 1.127 3.224 0 1.162-.281 2.178-.845 3.05-.564.87-1.344 1.538-2.34 2.003-.977.465-2.085.697-3.325.697zm22.717 7.101c-1.889-1.987-4.37-3.077-6.985-3.091-4.146-.014-8.477-.014-12.86.014a9.84 9.84 0 00-2.02.207C3.102 25.114-.41 30.055.039 35.327c.224 2.58 1.32 4.981 3.116 6.762 1.795 1.793 4.132 2.815 6.575 2.884.832.027 1.677.027 2.522.027.7 0 1.386 0 2.073-.014.686 0 1.386-.013 2.073-.013h.303c.594 0 1.202 0 1.796.013 1.532.014 3.103.014 4.66-.013 2.615-.07 5.07-1.215 6.92-3.243a10.71 10.71 0 002.798-7.41c-.026-2.774-1.082-5.383-2.97-7.356zm-6.496-1.49c4.7.33 8.12 4.388 7.974 9.452-.145 4.61-3.934 8.432-8.463 8.515-4.238.069-8.556.069-12.834 0-4.726-.083-8.569-4.057-8.555-8.873.013-5.106 3.71-9.04 8.595-9.15.779-.013 1.571-.027 2.35-.027.66 0 1.307 0 1.954.014.542 0 1.096 0 1.637.013 0-.013 5.744-.055 7.342.056z" fill="#4B575C"/><path d="M21.017 36.705l-.377-.083a5.228 5.228 0 01-2.786-1.784c-.056-.07-.07-.125-.028-.209.672-1.254 1.708-2.062 3.093-2.41h.042c-1.917.933-1.847 3.636.056 4.486zm5.151-2.173c.042.084.042.125-.014.209-.826 1.031-1.876 1.686-3.177 1.95.923-.473 1.455-1.198 1.455-2.229 0-1.03-.518-1.77-1.427-2.257.42.084.811.223 1.19.418a4.57 4.57 0 011.973 1.909z" fill="#4B575C"/><path d="M30.199 33.974c-.224-4.347-4.171-7.914-8.496-7.677-4.731.265-8.23 4.027-7.992 8.583.238 4.528 4.157 8.11 8.566 7.83 4.758-.292 8.16-4.04 7.922-8.736zm-3.373 1.046c-1.022 1.323-2.352 2.145-4.003 2.396-.07.014-.154.014-.224.028l-.518.042c-2.044-.028-3.668-.836-4.913-2.41-.154-.196-.154-.321-.056-.544.77-1.547 1.973-2.578 3.681-2.982a5.532 5.532 0 011.778-.125c1.805.167 3.429 1.24 4.324 2.94.113.264.099.418-.07.654zM50 23.973v21.232h-1.097L39.59 32.54v12.665H36.3V23.973h1.072l9.336 12.603V23.973h3.29z" fill="#4B575C"/></svg>