<svg width="540" height="110" fill="none" xmlns="http://www.w3.org/2000/svg"><path d="M302.58 55c0 5.672 1.038 11.75 3.113 18.232 2.174 6.381 5.533 12.307 10.079 17.776 4.545 5.47 10.326 10.028 17.342 13.674 7.016 3.545 15.415 5.318 25.198 5.318 6.62 0 12.599-.81 17.935-2.431 5.434-1.722 10.276-4.001 14.525-6.837 4.348-2.836 8.103-6.077 11.265-9.724 3.162-3.747 5.732-7.647 7.708-11.699 2.075-4.153 3.607-8.305 4.595-12.458 1.087-4.153 1.63-8.103 1.63-11.851 0-5.672-1.136-11.699-3.409-18.08-2.273-6.483-5.781-12.459-10.524-17.928-4.743-5.47-10.77-9.977-18.083-13.522C376.741 1.823 368.193 0 358.312 0c-9.783 0-18.182 1.773-25.198 5.318-7.016 3.545-12.797 8.052-17.342 13.522-4.546 5.368-7.905 11.294-10.079 17.776-2.075 6.483-3.113 12.61-3.113 18.384zm14.526 0c0-7.09 1.037-13.573 3.113-19.447 2.173-5.977 5.089-11.092 8.745-15.346 3.755-4.254 8.152-7.546 13.191-9.876 5.04-2.43 10.524-3.646 16.453-3.646 5.83 0 11.314 1.216 16.453 3.647a40.305 40.305 0 0113.636 9.875c3.953 4.254 7.066 9.37 9.338 15.346 2.273 5.874 3.409 12.357 3.409 19.447s-1.136 13.623-3.409 19.6c-2.272 5.874-5.385 10.939-9.338 15.193-3.853 4.254-8.399 7.596-13.636 10.027-5.139 2.33-10.623 3.495-16.453 3.495-5.929 0-11.413-1.165-16.453-3.495-5.039-2.43-9.436-5.773-13.191-10.027-3.656-4.254-6.572-9.319-8.745-15.194-2.076-5.976-3.113-12.509-3.113-19.599zM532.211 1.823v81.285h-.593L449.355 0h-.741v108.177h6.818V26.892h.593L538.288 110h.742V1.823h-6.819z" fill="#E3F1F6"/><path d="M.655 81.284c.197 4.356 1.284 8.306 3.26 11.851 2.076 3.545 4.843 6.584 8.301 9.116 3.558 2.431 7.708 4.356 12.45 5.774C29.41 109.342 34.599 110 40.23 110c5.732 0 10.87-.709 15.415-2.127 4.645-1.418 8.597-3.444 11.858-6.077 3.261-2.634 5.78-5.825 7.56-9.572 1.778-3.748 2.668-7.9 2.668-12.459 0-6.28-1.532-11.395-4.595-15.345-3.064-4.052-6.917-7.394-11.562-10.028-4.545-2.735-9.535-5.014-14.97-6.837-5.336-1.823-10.326-3.747-14.97-5.773-4.546-2.026-8.35-4.356-11.414-6.99-3.063-2.633-4.595-6.127-4.595-10.483 0-2.43.494-4.71 1.483-6.837 1.086-2.127 2.618-3.95 4.594-5.47 2.075-1.62 4.595-2.886 7.56-3.798 2.964-1.012 6.373-1.519 10.227-1.519 6.423 0 11.858 1.418 16.305 4.254 4.545 2.735 7.213 7.09 8.004 13.067h10.079c-.593-3.748-1.927-7.09-4.002-10.028-2.075-3.039-4.694-5.571-7.856-7.597-3.162-2.127-6.769-3.697-10.82-4.71C47.246.557 43.096 0 38.748 0c-4.545 0-8.893.608-13.044 1.823-4.051 1.216-7.658 2.988-10.82 5.318-3.063 2.33-5.534 5.267-7.411 8.812-1.779 3.545-2.668 7.597-2.668 12.155 0 5.976 1.482 10.787 4.447 14.433 2.964 3.647 6.67 6.686 11.116 9.117 4.546 2.43 9.437 4.507 14.674 6.229 5.238 1.722 10.08 3.697 14.526 5.925 4.546 2.127 8.3 4.76 11.265 7.9 2.965 3.14 4.447 7.344 4.447 12.611 0 6.584-2.372 11.395-7.115 14.434-4.644 3.039-10.87 4.558-18.676 4.558-6.225 0-11.215-.81-14.97-2.431-3.755-1.722-6.621-3.748-8.597-6.077-1.977-2.33-3.31-4.71-4.002-7.141-.692-2.532-1.087-4.66-1.186-6.382H.654zM113.007 1.823v106.354h66.997V99.82h-53.508V55.304h45.949v-6.99h-45.949V10.18h53.508V1.823h-66.997zm96.577 0v106.354h66.996V99.82h-53.508V55.304h45.949v-6.99h-45.949V10.18h53.508V1.823h-66.996z" fill="#fff"/></svg>