<svg version="1.0" xmlns="http://www.w3.org/2000/svg" width="1066.667" height="1066.667" viewBox="0 0 800 800"><path d="M94.8 33C55 39.3 26.2 63.3 17.4 97.5c-2.7 10.8-2.5 32.5.4 42.9 4 14 9.3 22.8 20.7 34.2 15.5 15.5 28.1 23.2 68.6 41.9 40.6 18.7 49.9 26.8 49.9 43.5 0 18.2-11.8 30.3-32.5 33.1-27.9 3.8-52-7-73.9-33.1-4.4-5.2-8.3-9.6-8.7-9.8-.7-.3-8.8 5.9-40.6 30.5-1.4 1.1-1.2 1.7 1.2 6 12.7 22 35.8 42.6 58.7 52.5 48.6 20.9 109.6 10.5 137.9-23.6 7.1-8.5 14-21.4 16.9-31.6 3.1-10.4 3.9-33.4 1.7-44.2-3.4-16.2-10.8-29.1-23.8-41.1-14.3-13.4-29.4-22.3-63.4-37.7-36.5-16.5-47.4-23.4-51-32.2-2.5-6.1-2.4-17 .2-22.8 8.2-18.4 38.5-23.6 62.5-10.8 7.2 3.8 18.7 14.3 24.3 22.2 2.2 3 4.3 5.5 4.7 5.3 2.2-.7 40.8-32.1 40.8-33.2 0-2.5-10-16.5-17.1-24-9.7-10.1-18.3-16.6-30.4-22.5-15.6-7.7-26.4-10.2-47-10.6-9.3-.1-19.6.1-22.7.6zM285 191v159h515v-59H350v-80h450v-56H350V91h450V32H285v159zM172 416c-28.3.5-33.8.9-42.7 2.8C65.8 432.6 17.1 484.1 2.8 552.5.8 562 .5 566.5.5 585c0 18.4.3 23.1 2.3 32.8C17.3 689.7 71 743.5 138.3 753.4c15.4 2.3 234 2.4 249.2.1 67.6-10.2 121.4-63.4 135.6-134.1 4.2-21.2 3.7-50.3-1.2-72.9-12.4-56.4-54.1-104.4-106.8-122.7-12.6-4.4-24.9-6.8-39.6-7.8-14-1-150.2-1-203.5 0zm205 26c25.3 2.4 48.7 11.4 68.7 26.4 8.6 6.5 24 22.9 30.2 32.1 25.3 37.9 32.8 88.2 19.4 130.9-13.5 43.3-51.2 80.8-93.8 93.1-20.4 5.9-19.1 5.8-137.5 5.8-95.7 0-109.7-.2-118.7-1.6-22.7-3.6-40.6-10.6-58.7-23.1-31.4-21.4-53.1-55.6-59.8-94.1-2.6-15.5-2.1-40.4 1.2-56 6.3-29.8 19-53.6 39.4-74.1 16.4-16.3 32.5-26.4 53.1-33.3 14.1-4.6 23.7-6.3 41.5-7 25.7-1.1 201.8-.3 215 .9z"/><path d="M343 454.6c-20.8 2.5-37.2 7.3-53.2 15.6-35.4 18.1-59.9 50.3-68.4 90-2.6 11.6-2.6 39-.1 50.8 14.5 68.6 76.5 115.1 142.7 107 47.4-5.8 85.5-32 105.7-72.5 17-34.1 18.3-76 3.4-110.6-17.3-40.1-54.7-70.4-96.9-78.5-7.9-1.5-27-2.5-33.2-1.8zm27.6 84.3c9.6 2 23 7.6 30.9 13.1 12.5 8.6 27.9 27.3 29.2 35.4.7 4.5-1.9 8.7-11.4 18.1-12.8 12.7-27.3 21.1-44.3 25.6-12.4 3.4-33.8 3.4-46.5 0-16.8-4.4-29.6-11.5-42.4-23.6-8.7-8.2-13.1-13.9-13.1-17 0-2.7 8.4-16.8 14.1-23.7 19.5-23.2 52.6-34.3 83.5-27.9z"/><path d="M324.1 553.1c-14.6 5.9-26.5 15.8-35 28.9-2.3 3.5-4.1 7.2-4.1 8.2 0 3 13.8 15.8 22.6 21 7 4.2 26 11.6 27 10.5.2-.2-2-2-5-4.1-15.3-10.5-20.7-31.7-12.4-49.2 2.2-4.8 9.9-13.4 14.8-16.7 4-2.6.3-2-7.9 1.4zm48.3-.8c10.5 7.8 15.6 15.6 17.6 26.6 2.8 15.6-3.9 31-16.9 39.3-3.3 2-3.9 2.8-2.5 2.8 5 0 23.1-8 30.4-13.4 6.3-4.7 18-16.9 18-18.8 0-3.1-6.8-12.9-13.5-19.4-7.2-7.1-17.6-13.6-27.1-17-8-2.9-9.8-3-6-.1zM581 585v170h53l.2-100.3.3-100.3 73.6 100.1 73.5 100 9.2.3 9.2.3V415l-26.2.2-26.3.3-.5 100.1-.5 100-74.3-100.3L597.9 415H581v170z"/></svg>